<?xml version="1.0" encoding="UTF-8" standalone="no"?><svg xmlns="http://www.w3.org/2000/svg" xmlns:xlink="http://www.w3.org/1999/xlink" contentScriptType="application/ecmascript" contentStyleType="text/css" height="272px" preserveAspectRatio="none" style="width:601px;height:272px;background:#FFFFFF;" version="1.1" viewBox="0 0 601 272" width="601px" zoomAndPan="magnify"><defs><filter height="300%" id="f1awqo8ywfoaq1" width="300%" x="-1" y="-1"><feGaussianBlur result="blurOut" stdDeviation="2.0"/><feColorMatrix in="blurOut" result="blurOut2" type="matrix" values="0 0 0 0 0 0 0 0 0 0 0 0 0 0 0 0 0 0 .4 0"/><feOffset dx="4.0" dy="4.0" in="blurOut2" result="blurOut3"/><feBlend in="SourceGraphic" in2="blurOut3" mode="normal"/></filter></defs><g><!--MD5=[8faeac396753b521f6f3370b465abb49]
entity PYT--><polygon fill="#FEFECE" filter="url(#f1awqo8ywfoaq1)" points="16,123.0833,26,113.0833,168,113.0833,168,149.3801,158,159.3801,16,159.3801,16,123.0833" style="stroke:#000000;stroke-width:1.5;"/><line style="stroke:#000000;stroke-width:1.5;" x1="158" x2="168" y1="123.0833" y2="113.0833"/><line style="stroke:#000000;stroke-width:1.5;" x1="16" x2="158" y1="123.0833" y2="123.0833"/><line style="stroke:#000000;stroke-width:1.5;" x1="158" x2="158" y1="123.0833" y2="159.3801"/><text fill="#000000" font-family="sans-serif" font-size="14" lengthAdjust="spacing" textLength="112" x="31" y="146.0784">mytemplate.pyt</text><!--MD5=[672481c0533b5a935e658e2261203700]
entity RND--><polygon fill="#FEFECE" filter="url(#f1awqo8ywfoaq1)" points="203.5,123.0833,213.5,113.0833,396.5,113.0833,396.5,149.3801,386.5,159.3801,203.5,159.3801,203.5,123.0833" style="stroke:#000000;stroke-width:1.5;"/><line style="stroke:#000000;stroke-width:1.5;" x1="386.5" x2="396.5" y1="123.0833" y2="113.0833"/><line style="stroke:#000000;stroke-width:1.5;" x1="203.5" x2="386.5" y1="123.0833" y2="123.0833"/><line style="stroke:#000000;stroke-width:1.5;" x1="386.5" x2="386.5" y1="123.0833" y2="159.3801"/><text fill="#000000" font-family="sans-serif" font-size="14" lengthAdjust="spacing" textLength="153" x="218.5" y="146.0784">mytemplate.renderer</text><!--MD5=[118ae369d2719811e9978d2db433e71a]
entity MTD--><path d="M249.6267,15.8768 C253.6169,8.7494 258.224,8.3196 262.7997,15.3313 C265.8235,10.3335 270.7254,9.1003 274.032,15.0409 C278.4047,8.4777 283.5871,7.7057 288.0802,14.9181 C290.489,6.7734 297.2846,7.091 301.9759,12.5941 C307.3071,6 311.4315,6.5351 315.0079,14.1981 C318.7075,9.1758 322.947,9.8148 326.2199,14.6819 C330.699,8.3597 335.3274,7.4136 339.9629,14.5218 C345.3891,8.3028 349.8543,10.0764 353.7586,16.22 C361.7538,16.393 366.4152,23.0267 362.3515,30.4709 C367.4102,38.5251 362.5563,45.9501 353.6906,46.4632 C349.9332,53.7938 343.2577,53.4183 339.5287,46.4353 C335.7728,52.7056 330.9095,52.637 326.2654,47.4649 C323.5676,52.7358 318.543,54.1044 314.4531,49.0589 C311.0299,55.6074 305.4205,55.4905 301.7316,49.3247 C297.3984,54.8779 291.1778,53.8992 287.9375,48.0075 C283.0921,54.2223 278.8518,53.6578 274.6976,47.2807 C270.8966,52.5854 265.4871,53.2918 262.4698,46.4892 C258.8595,53.0392 252.5588,52.1436 249.6528,45.7896 C242.118,43.1672 241.1189,37.4942 245.6766,31.5057 C238.419,25.0041 241.2145,18.4179 249.6267,15.8768 " fill="#FEFECE" filter="url(#f1awqo8ywfoaq1)" style="stroke:#000000;stroke-width:1.5;"/><text fill="#000000" font-family="sans-serif" font-size="14" lengthAdjust="spacing" textLength="90" x="255" y="35.0784">MkTechDocs</text><!--MD5=[e291d5aa2260f5663058080aae2b1552]
entity MD--><polygon fill="#FEFECE" filter="url(#f1awqo8ywfoaq1)" points="431.5,123.0833,441.5,113.0833,584.5,113.0833,584.5,149.3801,574.5,159.3801,431.5,159.3801,431.5,123.0833" style="stroke:#000000;stroke-width:1.5;"/><line style="stroke:#000000;stroke-width:1.5;" x1="574.5" x2="584.5" y1="123.0833" y2="113.0833"/><line style="stroke:#000000;stroke-width:1.5;" x1="431.5" x2="574.5" y1="123.0833" y2="123.0833"/><line style="stroke:#000000;stroke-width:1.5;" x1="574.5" x2="574.5" y1="123.0833" y2="159.3801"/><text fill="#000000" font-family="sans-serif" font-size="14" lengthAdjust="spacing" textLength="113" x="446.5" y="146.0784">mytemplate.md</text><!--MD5=[e6ac1367de22501ebf02e0cfed3204a6]
entity FD--><polygon fill="#FEFECE" filter="url(#f1awqo8ywfoaq1)" points="432,229.0833,442,219.0833,584,219.0833,584,255.3801,574,265.3801,432,265.3801,432,229.0833" style="stroke:#000000;stroke-width:1.5;"/><line style="stroke:#000000;stroke-width:1.5;" x1="574" x2="584" y1="229.0833" y2="219.0833"/><line style="stroke:#000000;stroke-width:1.5;" x1="432" x2="574" y1="229.0833" y2="229.0833"/><line style="stroke:#000000;stroke-width:1.5;" x1="574" x2="574" y1="229.0833" y2="265.3801"/><text fill="#000000" font-family="sans-serif" font-size="14" lengthAdjust="spacing" textLength="112" x="447" y="252.0784">Final Document</text><!--MD5=[93f1df5dd1172327218093c31ff5ab0a]
reverse link MTD to PYT--><path d="M250.3147,55.4037 C216.0093,72.8863 170.7434,95.9545 137.4035,112.945 " fill="none" id="MTD-backto-PYT" style="stroke:#A80036;stroke-width:1.0;"/><polygon fill="#A80036" points="254.8671,53.0837,245.0321,53.6062,250.4122,55.3539,248.6645,60.734,254.8671,53.0837" style="stroke:#A80036;stroke-width:1.0;"/><!--MD5=[00d01f71591d3c04ed3161f2c6c91e42]
reverse link MTD to RND--><path d="M300,58.2138 C300,75.2371 300,96.687 300,112.7617 " fill="none" id="MTD-backto-RND" style="stroke:#A80036;stroke-width:1.0;"/><polygon fill="#A80036" points="300,53.0837,296,62.0837,300,58.0837,304,62.0837,300,53.0837" style="stroke:#A80036;stroke-width:1.0;"/><!--MD5=[bb441f017f24ed139a820eae456daf8c]
link MTD to MD--><path d="M345.1329,53.0837 C378.408,70.0412 423.6711,93.108 458.0358,110.6208 " fill="none" id="MTD-to-MD" style="stroke:#A80036;stroke-width:1.0;"/><polygon fill="#A80036" points="462.5965,112.945,456.3939,105.2946,458.1416,110.6747,452.7615,112.4225,462.5965,112.945" style="stroke:#A80036;stroke-width:1.0;"/><!--MD5=[88006244ff214955ac80da257ca9be1c]
link MD to FD--><path d="M508,159.0837 C508,175.0863 508,196.5294 508,213.6113 " fill="none" id="MD-to-FD" style="stroke:#A80036;stroke-width:1.0;"/><polygon fill="#A80036" points="508,218.7617,512,209.7617,508,213.7617,504,209.7617,508,218.7617" style="stroke:#A80036;stroke-width:1.0;"/><!--MD5=[2213bc695e591e194bad1a58d649d7dc]
@startuml
node mytemplate.pyt as PYT
node mytemplate.renderer as RND
cloud MkTechDocs as MTD
node mytemplate.md as MD
node "Final Document" as FD

MTD <- - PYT
MTD <- - RND
MTD - -> MD
MD - -> FD
@enduml

PlantUML version 1.2021.8(Sat Jun 26 08:20:59 UTC 2021)
(GPL source distribution)
Java Runtime: OpenJDK Runtime Environment
JVM: OpenJDK 64-Bit Server VM
Default Encoding: UTF-8
Language: en
Country: US
--></g></svg>