<?xml version="1.0" encoding="UTF-8" standalone="no"?><svg xmlns="http://www.w3.org/2000/svg" xmlns:xlink="http://www.w3.org/1999/xlink" contentScriptType="application/ecmascript" contentStyleType="text/css" height="268px" preserveAspectRatio="none" style="width:577px;height:268px;" version="1.1" viewBox="0 0 577 268" width="577px" zoomAndPan="magnify"><defs><filter height="300%" id="f1awqo8ywfoaq1" width="300%" x="-1" y="-1"><feGaussianBlur result="blurOut" stdDeviation="2.0"/><feColorMatrix in="blurOut" result="blurOut2" type="matrix" values="0 0 0 0 0 0 0 0 0 0 0 0 0 0 0 0 0 0 .4 0"/><feOffset dx="4.0" dy="4.0" in="blurOut2" result="blurOut3"/><feBlend in="SourceGraphic" in2="blurOut3" mode="normal"/></filter></defs><g><!--entity PYT--><polygon fill="#FEFECE" filter="url(#f1awqo8ywfoaq1)" points="6,114,16,104,152,104,152,140.2969,142,150.2969,6,150.2969,6,114" style="stroke: #000000; stroke-width: 1.5;"/><line style="stroke: #000000; stroke-width: 1.5;" x1="142" x2="151" y1="114" y2="105"/><line style="stroke: #000000; stroke-width: 1.5;" x1="6" x2="142" y1="114" y2="114"/><line style="stroke: #000000; stroke-width: 1.5;" x1="142" x2="142" y1="114" y2="150.2969"/><text fill="#000000" font-family="sans-serif" font-size="14" lengthAdjust="spacingAndGlyphs" textLength="106" x="21" y="136.9951">mytemplate.pyt</text><!--entity RND--><polygon fill="#FEFECE" filter="url(#f1awqo8ywfoaq1)" points="187.5,114,197.5,104,372.5,104,372.5,140.2969,362.5,150.2969,187.5,150.2969,187.5,114" style="stroke: #000000; stroke-width: 1.5;"/><line style="stroke: #000000; stroke-width: 1.5;" x1="362.5" x2="371.5" y1="114" y2="105"/><line style="stroke: #000000; stroke-width: 1.5;" x1="187.5" x2="362.5" y1="114" y2="114"/><line style="stroke: #000000; stroke-width: 1.5;" x1="362.5" x2="362.5" y1="114" y2="150.2969"/><text fill="#000000" font-family="sans-serif" font-size="14" lengthAdjust="spacingAndGlyphs" textLength="145" x="202.5" y="136.9951">mytemplate.renderer</text><!--entity MTD--><path d="M227.5,15 C227.5,12 229.5,10 232.5,10 C235.5,10 237.5,12 237.5,15 C237.5,12 239.5,10 242.5,10 C245.5,10 247.5,12 247.5,15 C247.5,12 249.5,10 252.5,10 C255.5,10 257.5,12 257.5,15 C257.5,12 259.5,10 262.5,10 C265.5,10 267.5,12 267.5,15 C267.5,12 269.5,10 272.5,10 C275.5,10 277.5,12 277.5,15 C277.5,12 279.5,10 282.5,10 C285.5,10 287.5,12 287.5,15 C287.5,12 289.5,10 292.5,10 C295.5,10 297.5,12 297.5,15 C297.5,12 299.5,10 302.5,10 C305.5,10 307.5,12 307.5,15 C307.5,12 309.5,10 312.5,10 C315.5,10 317.5,12 317.5,15 C317.5,12 319.5,10 322.5,10 C325.5,10 327.5,12 327.5,15 C327.5,12 329.5,10 332.5,10 C335.5,10 337.5,12 337.5,15 C340.5,15 342.5,17 342.5,20 C342.5,23 340.5,25 337.5,25 C340.5,25 342.5,27 342.5,30 C342.5,33 340.5,35 337.5,35 C337.5,38 334.5,40 332.5,40 C329.5,40 327.5,38 327.5,35 C327.5,38 324.5,40 322.5,40 C319.5,40 317.5,38 317.5,35 C317.5,38 314.5,40 312.5,40 C309.5,40 307.5,38 307.5,35 C307.5,38 304.5,40 302.5,40 C299.5,40 297.5,38 297.5,35 C297.5,38 294.5,40 292.5,40 C289.5,40 287.5,38 287.5,35 C287.5,38 284.5,40 282.5,40 C279.5,40 277.5,38 277.5,35 C277.5,38 274.5,40 272.5,40 C269.5,40 267.5,38 267.5,35 C267.5,38 264.5,40 262.5,40 C259.5,40 257.5,38 257.5,35 C257.5,38 254.5,40 252.5,40 C249.5,40 247.5,38 247.5,35 C247.5,38 244.5,40 242.5,40 C239.5,40 237.5,38 237.5,35 C237.5,38 234.5,40 232.5,40 C229.5,40 227.5,38 227.5,35 C224.5,35 222.5,33 222.5,30 C222.5,27 224.5,25 227.5,25 C224.5,25 222.5,23 222.5,20 C222.5,17 224.5,15 227.5,15 " fill="#FEFECE" filter="url(#f1awqo8ywfoaq1)" style="stroke: #000000; stroke-width: 1.5;"/><text fill="#000000" font-family="sans-serif" font-size="14" lengthAdjust="spacingAndGlyphs" textLength="91" x="234.5" y="30.9951">MkTechDocs</text><!--entity MD--><polygon fill="#FEFECE" filter="url(#f1awqo8ywfoaq1)" points="407.5,114,417.5,104,554.5,104,554.5,140.2969,544.5,150.2969,407.5,150.2969,407.5,114" style="stroke: #000000; stroke-width: 1.5;"/><line style="stroke: #000000; stroke-width: 1.5;" x1="544.5" x2="553.5" y1="114" y2="105"/><line style="stroke: #000000; stroke-width: 1.5;" x1="407.5" x2="544.5" y1="114" y2="114"/><line style="stroke: #000000; stroke-width: 1.5;" x1="544.5" x2="544.5" y1="114" y2="150.2969"/><text fill="#000000" font-family="sans-serif" font-size="14" lengthAdjust="spacingAndGlyphs" textLength="107" x="422.5" y="136.9951">mytemplate.md</text><!--entity FD--><polygon fill="#FEFECE" filter="url(#f1awqo8ywfoaq1)" points="407,220,417,210,555,210,555,246.2969,545,256.2969,407,256.2969,407,220" style="stroke: #000000; stroke-width: 1.5;"/><line style="stroke: #000000; stroke-width: 1.5;" x1="545" x2="554" y1="220" y2="211"/><line style="stroke: #000000; stroke-width: 1.5;" x1="407" x2="545" y1="220" y2="220"/><line style="stroke: #000000; stroke-width: 1.5;" x1="545" x2="545" y1="220" y2="256.2969"/><text fill="#000000" font-family="sans-serif" font-size="14" lengthAdjust="spacingAndGlyphs" textLength="108" x="422" y="242.9951">Final Document</text><!--link MTD to PYT--><path d="M239.2757,46.4634 C206.1223,63.1226 159.3362,86.6321 124.8674,103.9522 " fill="none" id="MTD-PYT" style="stroke: #A80036; stroke-width: 1.0;"/><polygon fill="#A80036" points="244.0652,44.0568,234.2274,44.5236,239.5975,46.3018,237.8194,51.6719,244.0652,44.0568" style="stroke: #A80036; stroke-width: 1.0;"/><!--link MTD to RND--><path d="M280,49.3773 C280,65.7214 280,87.4549 280,103.7672 " fill="none" id="MTD-RND" style="stroke: #A80036; stroke-width: 1.0;"/><polygon fill="#A80036" points="280,44.0568,276,53.0568,280,49.0568,284,53.0568,280,44.0568" style="stroke: #A80036; stroke-width: 1.0;"/><!--link MTD to MD--><path d="M315.9348,44.0568 C347.8146,60.076 394.7259,83.6483 430.3981,101.5732 " fill="none" id="MTD-MD" style="stroke: #A80036; stroke-width: 1.0;"/><polygon fill="#A80036" points="435.1326,103.9522,428.8868,96.3371,430.6649,101.7072,425.2948,103.4854,435.1326,103.9522" style="stroke: #A80036; stroke-width: 1.0;"/><!--link MD to FD--><path d="M481,150.0004 C481,166.003 481,187.4461 481,204.528 " fill="none" id="MD-FD" style="stroke: #A80036; stroke-width: 1.0;"/><polygon fill="#A80036" points="481,209.6784,485,200.6784,481,204.6784,477,200.6784,481,209.6784" style="stroke: #A80036; stroke-width: 1.0;"/><!--
@startuml
node mytemplate.pyt as PYT
node mytemplate.renderer as RND
cloud MkTechDocs as MTD
node mytemplate.md as MD
node "Final Document" as FD

MTD <- - PYT
MTD <- - RND
MTD - -> MD
MD - -> FD
@enduml

PlantUML version 1.2017.15(Mon Jul 03 12:45:34 EDT 2017)
(GPL source distribution)
Java Runtime: OpenJDK Runtime Environment
JVM: OpenJDK 64-Bit Server VM
Java Version: 10.0.2+13-Ubuntu-1ubuntu0.18.04.1
Operating System: Linux
OS Version: 4.15.0-33-generic
Default Encoding: UTF-8
Language: en
Country: US
--></g></svg>