<?xml version="1.0" encoding="UTF-8" standalone="no"?><svg xmlns="http://www.w3.org/2000/svg" xmlns:xlink="http://www.w3.org/1999/xlink" contentScriptType="application/ecmascript" contentStyleType="text/css" height="268px" preserveAspectRatio="none" style="width:574px;height:268px;" version="1.1" viewBox="0 0 574 268" width="574px" zoomAndPan="magnify"><defs><filter height="300%" id="f1awqo8ywfoaq1" width="300%" x="-1" y="-1"><feGaussianBlur result="blurOut" stdDeviation="2.0"/><feColorMatrix in="blurOut" result="blurOut2" type="matrix" values="0 0 0 0 0 0 0 0 0 0 0 0 0 0 0 0 0 0 .4 0"/><feOffset dx="4.0" dy="4.0" in="blurOut2" result="blurOut3"/><feBlend in="SourceGraphic" in2="blurOut3" mode="normal"/></filter></defs><g><!--entity PYT--><polygon fill="#FEFECE" filter="url(#f1awqo8ywfoaq1)" points="6,114,16,104,151,104,151,140.4883,141,150.4883,6,150.4883,6,114" style="stroke: #000000; stroke-width: 1.5;"/><line style="stroke: #000000; stroke-width: 1.5;" x1="141" x2="150" y1="114" y2="105"/><line style="stroke: #000000; stroke-width: 1.5;" x1="6" x2="141" y1="114" y2="114"/><line style="stroke: #000000; stroke-width: 1.5;" x1="141" x2="141" y1="114" y2="150.4883"/><text fill="#000000" font-family="sans-serif" font-size="14" lengthAdjust="spacingAndGlyphs" textLength="105" x="21" y="137.5352">mytemplate.pyt</text><!--entity RND--><polygon fill="#FEFECE" filter="url(#f1awqo8ywfoaq1)" points="186.5,114,196.5,104,370.5,104,370.5,140.4883,360.5,150.4883,186.5,150.4883,186.5,114" style="stroke: #000000; stroke-width: 1.5;"/><line style="stroke: #000000; stroke-width: 1.5;" x1="360.5" x2="369.5" y1="114" y2="105"/><line style="stroke: #000000; stroke-width: 1.5;" x1="186.5" x2="360.5" y1="114" y2="114"/><line style="stroke: #000000; stroke-width: 1.5;" x1="360.5" x2="360.5" y1="114" y2="150.4883"/><text fill="#000000" font-family="sans-serif" font-size="14" lengthAdjust="spacingAndGlyphs" textLength="144" x="201.5" y="137.5352">mytemplate.renderer</text><!--entity MTD--><path d="M228.5,15 C228.5,12 230.5,10 233.5,10 C236.5,10 238.5,12 238.5,15 C238.5,12 240.5,10 243.5,10 C246.5,10 248.5,12 248.5,15 C248.5,12 250.5,10 253.5,10 C256.5,10 258.5,12 258.5,15 C258.5,12 260.5,10 263.5,10 C266.5,10 268.5,12 268.5,15 C268.5,12 270.5,10 273.5,10 C276.5,10 278.5,12 278.5,15 C278.5,12 280.5,10 283.5,10 C286.5,10 288.5,12 288.5,15 C288.5,12 290.5,10 293.5,10 C296.5,10 298.5,12 298.5,15 C298.5,12 300.5,10 303.5,10 C306.5,10 308.5,12 308.5,15 C308.5,12 310.5,10 313.5,10 C316.5,10 318.5,12 318.5,15 C318.5,12 320.5,10 323.5,10 C326.5,10 328.5,12 328.5,15 C331.5,15 333.5,17 333.5,20 C333.5,23 331.5,25 328.5,25 C331.5,25 333.5,27 333.5,30 C333.5,33 331.5,35 328.5,35 C328.5,38 325.5,40 323.5,40 C320.5,40 318.5,38 318.5,35 C318.5,38 315.5,40 313.5,40 C310.5,40 308.5,38 308.5,35 C308.5,38 305.5,40 303.5,40 C300.5,40 298.5,38 298.5,35 C298.5,38 295.5,40 293.5,40 C290.5,40 288.5,38 288.5,35 C288.5,38 285.5,40 283.5,40 C280.5,40 278.5,38 278.5,35 C278.5,38 275.5,40 273.5,40 C270.5,40 268.5,38 268.5,35 C268.5,38 265.5,40 263.5,40 C260.5,40 258.5,38 258.5,35 C258.5,38 255.5,40 253.5,40 C250.5,40 248.5,38 248.5,35 C248.5,38 245.5,40 243.5,40 C240.5,40 238.5,38 238.5,35 C238.5,38 235.5,40 233.5,40 C230.5,40 228.5,38 228.5,35 C225.5,35 223.5,33 223.5,30 C223.5,27 225.5,25 228.5,25 C225.5,25 223.5,23 223.5,20 C223.5,17 225.5,15 228.5,15 " fill="#FEFECE" filter="url(#f1awqo8ywfoaq1)" style="stroke: #000000; stroke-width: 1.5;"/><text fill="#000000" font-family="sans-serif" font-size="14" lengthAdjust="spacingAndGlyphs" textLength="86" x="235.5" y="31.5352">MkTechDocs</text><!--entity MD--><polygon fill="#FEFECE" filter="url(#f1awqo8ywfoaq1)" points="405.5,114,415.5,104,551.5,104,551.5,140.4883,541.5,150.4883,405.5,150.4883,405.5,114" style="stroke: #000000; stroke-width: 1.5;"/><line style="stroke: #000000; stroke-width: 1.5;" x1="541.5" x2="550.5" y1="114" y2="105"/><line style="stroke: #000000; stroke-width: 1.5;" x1="405.5" x2="541.5" y1="114" y2="114"/><line style="stroke: #000000; stroke-width: 1.5;" x1="541.5" x2="541.5" y1="114" y2="150.4883"/><text fill="#000000" font-family="sans-serif" font-size="14" lengthAdjust="spacingAndGlyphs" textLength="106" x="420.5" y="137.5352">mytemplate.md</text><!--entity FD--><polygon fill="#FEFECE" filter="url(#f1awqo8ywfoaq1)" points="405,220,415,210,552,210,552,246.4883,542,256.4883,405,256.4883,405,220" style="stroke: #000000; stroke-width: 1.5;"/><line style="stroke: #000000; stroke-width: 1.5;" x1="542" x2="551" y1="220" y2="211"/><line style="stroke: #000000; stroke-width: 1.5;" x1="405" x2="542" y1="220" y2="220"/><line style="stroke: #000000; stroke-width: 1.5;" x1="542" x2="542" y1="220" y2="256.4883"/><text fill="#000000" font-family="sans-serif" font-size="14" lengthAdjust="spacingAndGlyphs" textLength="107" x="420" y="243.5352">Final Document</text><!--link MTD to PYT--><path d="M237.9784,46.4634 C204.9899,63.1226 158.4365,86.6321 124.1392,103.9522 " fill="none" id="MTD-PYT" style="stroke: #A80036; stroke-width: 1.0;"/><polygon fill="#A80036" points="242.744,44.0568,232.9072,44.5435,238.2809,46.3108,236.5136,51.6845,242.744,44.0568" style="stroke: #A80036; stroke-width: 1.0;"/><!--link MTD to RND--><path d="M278.5,49.3773 C278.5,65.7214 278.5,87.4549 278.5,103.7672 " fill="none" id="MTD-RND" style="stroke: #A80036; stroke-width: 1.0;"/><polygon fill="#A80036" points="278.5,44.0568,274.5,53.0568,278.5,49.0568,282.5,53.0568,278.5,44.0568" style="stroke: #A80036; stroke-width: 1.0;"/><!--link MTD to MD--><path d="M314.256,44.0568 C345.9773,60.076 392.6551,83.6483 428.1498,101.5732 " fill="none" id="MTD-MD" style="stroke: #A80036; stroke-width: 1.0;"/><polygon fill="#A80036" points="432.8608,103.9522,426.6303,96.3246,428.3976,101.6983,423.024,103.4656,432.8608,103.9522" style="stroke: #A80036; stroke-width: 1.0;"/><!--link MD to FD--><path d="M478.5,150.0004 C478.5,166.003 478.5,187.4461 478.5,204.528 " fill="none" id="MD-FD" style="stroke: #A80036; stroke-width: 1.0;"/><polygon fill="#A80036" points="478.5,209.6784,482.5,200.6784,478.5,204.6784,474.5,200.6784,478.5,209.6784" style="stroke: #A80036; stroke-width: 1.0;"/><!--
@startuml
node mytemplate.pyt as PYT
node mytemplate.renderer as RND
cloud MkTechDocs as MTD
node mytemplate.md as MD
node "Final Document" as FD

MTD <- - PYT
MTD <- - RND
MTD - -> MD
MD - -> FD
@enduml

PlantUML version 1.2018.12(Sun Oct 21 06:15:15 EDT 2018)
(GPL source distribution)
Java Runtime: OpenJDK Runtime Environment
JVM: OpenJDK 64-Bit Server VM
Java Version: 11.0.1+13
Operating System: Mac OS X
OS Version: 10.13.6
Default Encoding: UTF-8
Language: en
Country: US
--></g></svg>